<svg xmlns="http://www.w3.org/2000/svg" viewBox="0 0 1200 760" width="1200" height="760">
  <defs>
    <linearGradient id="bg" x1="0" y1="0" x2="0.35" y2="1">
      <stop offset="0" stop-color="#181410"/><stop offset="1" stop-color="#221b14"/>
    </linearGradient>
    <radialGradient id="glow" cx="0.773" cy="0.188" r="0.9">
      <stop offset="0" stop-color="#c9a75e" stop-opacity="0.200"/>
      <stop offset="0.55" stop-color="#c9a75e" stop-opacity="0"/>
    </radialGradient><radialGradient id="arc" cx="0.42" cy="0.4" r="0.6">
      <stop offset="0" stop-color="#f0dcae" stop-opacity="0.3"/>
      <stop offset="0.55" stop-color="#c9a75e" stop-opacity="0.1"/>
      <stop offset="1" stop-color="#c9a75e" stop-opacity="0"/>
    </radialGradient>
  </defs>
  <rect width="1200" height="760" fill="url(#bg)"/>
  <rect width="1200" height="760" fill="url(#glow)"/>
  <g><g opacity="0.6"><path d="M -60.0 5.4 Q -60.0 5.4 -26.7 15.4 Q 6.7 25.3 40.0 34.3 Q 73.3 43.2 106.7 50.9 Q 140.0 58.5 173.3 64.5 Q 206.7 70.5 240.0 74.6 Q 273.3 78.7 306.7 80.8 Q 340.0 82.8 373.3 82.8 Q 406.7 82.8 440.0 80.8 Q 473.3 78.7 506.7 74.7 Q 540.0 70.7 573.3 65.0 Q 606.7 59.3 640.0 52.2 Q 673.3 45.0 706.7 36.7 Q 740.0 28.5 773.3 19.5 Q 806.7 10.6 840.0 1.3 Q 873.3 -7.9 906.7 -17.0 Q 940.0 -26.1 973.3 -34.7 Q 1006.7 -43.2 1040.0 -50.8 Q 1073.3 -58.4 1106.7 -64.8 Q 1140.0 -71.1 1173.3 -75.9" fill="none" stroke="#f0dcae" stroke-width="1.82" stroke-opacity="0.05"/><path d="M -60.0 89.7 Q -60.0 89.7 -26.7 96.7 Q 6.7 103.8 40.0 109.1 Q 73.3 114.4 106.7 117.8 Q 140.0 121.2 173.3 122.5 Q 206.7 123.9 240.0 123.1 Q 273.3 122.3 306.7 119.5 Q 340.0 116.6 373.3 111.9 Q 406.7 107.2 440.0 100.7 Q 473.3 94.3 506.7 86.5 Q 540.0 78.7 573.3 69.8 Q 606.7 61.0 640.0 51.5 Q 673.3 42.1 706.7 32.4 Q 740.0 22.7 773.3 13.3 Q 806.7 3.9 840.0 -4.9 Q 873.3 -13.7 906.7 -21.5 Q 940.0 -29.3 973.3 -35.7 Q 1006.7 -42.1 1040.0 -47.0 Q 1073.3 -51.8 1106.7 -54.8 Q 1140.0 -57.8 1173.3 -59.0" fill="none" stroke="#e7cf9b" stroke-width="2.02" stroke-opacity="0.05"/><path d="M -60.0 130.3 Q -60.0 130.3 -26.7 136.8 Q 6.7 143.4 40.0 148.2 Q 73.3 152.9 106.7 155.7 Q 140.0 158.5 173.3 159.3 Q 206.7 160.0 240.0 158.6 Q 273.3 157.2 306.7 153.8 Q 340.0 150.4 373.3 145.1 Q 406.7 139.8 440.0 132.9 Q 473.3 126.0 506.7 117.9 Q 540.0 109.7 573.3 100.6 Q 606.7 91.5 640.0 81.9 Q 673.3 72.3 706.7 62.6 Q 740.0 52.9 773.3 43.5 Q 806.7 34.2 840.0 25.6 Q 873.3 17.0 906.7 9.5 Q 940.0 2.0 973.3 -4.1 Q 1006.7 -10.1 1040.0 -14.5 Q 1073.3 -18.9 1106.7 -21.5 Q 1140.0 -24.0 1173.3 -24.7" fill="none" stroke="#d8b978" stroke-width="1.02" stroke-opacity="0.05"/><path d="M -60.0 194.3 Q -60.0 194.3 -26.7 196.0 Q 6.7 197.7 40.0 197.3 Q 73.3 196.9 106.7 194.4 Q 140.0 191.9 173.3 187.4 Q 206.7 182.9 240.0 176.6 Q 273.3 170.4 306.7 162.6 Q 340.0 154.8 373.3 145.9 Q 406.7 136.9 440.0 127.2 Q 473.3 117.5 506.7 107.4 Q 540.0 97.3 573.3 87.3 Q 606.7 77.3 640.0 67.7 Q 673.3 58.2 706.7 49.6 Q 740.0 41.0 773.3 33.6 Q 806.7 26.2 840.0 20.4 Q 873.3 14.5 906.7 10.5 Q 940.0 6.4 973.3 4.2 Q 1006.7 2.0 1040.0 1.8 Q 1073.3 1.6 1106.7 3.2 Q 1140.0 4.9 1173.3 8.3" fill="none" stroke="#c9a75e" stroke-width="1.96" stroke-opacity="0.05"/><path d="M -60.0 232.0 Q -60.0 232.0 -26.7 229.3 Q 6.7 226.7 40.0 222.0 Q 73.3 217.4 106.7 210.9 Q 140.0 204.5 173.3 196.5 Q 206.7 188.6 240.0 179.4 Q 273.3 170.2 306.7 160.3 Q 340.0 150.3 373.3 139.9 Q 406.7 129.6 440.0 119.3 Q 473.3 109.0 506.7 99.1 Q 540.0 89.3 573.3 80.4 Q 606.7 71.4 640.0 63.7 Q 673.3 56.0 706.7 49.8 Q 740.0 43.7 773.3 39.3 Q 806.7 34.9 840.0 32.5 Q 873.3 30.0 906.7 29.5 Q 940.0 29.0 973.3 30.4 Q 1006.7 31.9 1040.0 35.1 Q 1073.3 38.4 1106.7 43.2 Q 1140.0 48.1 1173.3 54.2" fill="none" stroke="#b08d47" stroke-width="2.35" stroke-opacity="0.05"/><path d="M -60.0 265.9 Q -60.0 265.9 -26.7 262.5 Q 6.7 259.1 40.0 253.7 Q 73.3 248.4 106.7 241.4 Q 140.0 234.3 173.3 225.8 Q 206.7 217.4 240.0 207.8 Q 273.3 198.3 306.7 188.1 Q 340.0 177.9 373.3 167.5 Q 406.7 157.1 440.0 146.8 Q 473.3 136.6 506.7 127.0 Q 540.0 117.4 573.3 108.8 Q 606.7 100.2 640.0 93.0 Q 673.3 85.7 706.7 80.1 Q 740.0 74.5 773.3 70.8 Q 806.7 67.0 840.0 65.2 Q 873.3 63.4 906.7 63.6 Q 940.0 63.7 973.3 65.8 Q 1006.7 67.9 1040.0 71.7 Q 1073.3 75.6 1106.7 80.9 Q 1140.0 86.3 1173.3 92.8" fill="none" stroke="#f0dcae" stroke-width="1.47" stroke-opacity="0.05"/><path d="M -60.0 269.2 Q -60.0 269.2 -26.7 260.9 Q 6.7 252.7 40.0 243.2 Q 73.3 233.8 106.7 223.5 Q 140.0 213.3 173.3 202.6 Q 206.7 192.0 240.0 181.4 Q 273.3 170.8 306.7 160.7 Q 340.0 150.6 373.3 141.3 Q 406.7 132.1 440.0 124.2 Q 473.3 116.2 506.7 109.8 Q 540.0 103.5 573.3 98.9 Q 606.7 94.3 640.0 91.7 Q 673.3 89.0 706.7 88.4 Q 740.0 87.8 773.3 89.2 Q 806.7 90.6 840.0 93.8 Q 873.3 97.1 906.7 102.0 Q 940.0 106.9 973.3 113.2 Q 1006.7 119.5 1040.0 126.9 Q 1073.3 134.3 1106.7 142.3 Q 1140.0 150.3 1173.3 158.6" fill="none" stroke="#e7cf9b" stroke-width="1.00" stroke-opacity="0.05"/><path d="M -60.0 233.2 Q -60.0 233.2 -26.7 222.4 Q 6.7 211.7 40.0 201.0 Q 73.3 190.4 106.7 180.4 Q 140.0 170.4 173.3 161.3 Q 206.7 152.3 240.0 144.6 Q 273.3 136.9 306.7 130.9 Q 340.0 124.9 373.3 120.7 Q 406.7 116.6 440.0 114.4 Q 473.3 112.3 506.7 112.2 Q 540.0 112.2 573.3 114.1 Q 606.7 116.1 640.0 119.9 Q 673.3 123.7 706.7 129.3 Q 740.0 134.8 773.3 141.7 Q 806.7 148.6 840.0 156.5 Q 873.3 164.5 906.7 173.0 Q 940.0 181.6 973.3 190.4 Q 1006.7 199.2 1040.0 207.8 Q 1073.3 216.5 1106.7 224.5 Q 1140.0 232.5 1173.3 239.5" fill="none" stroke="#d8b978" stroke-width="2.03" stroke-opacity="0.05"/><path d="M -60.0 230.5 Q -60.0 230.5 -26.7 220.2 Q 6.7 209.9 40.0 200.4 Q 73.3 190.9 106.7 182.6 Q 140.0 174.3 173.3 167.5 Q 206.7 160.8 240.0 155.8 Q 273.3 150.8 306.7 147.8 Q 340.0 144.8 373.3 143.9 Q 406.7 142.9 440.0 144.1 Q 473.3 145.2 506.7 148.4 Q 540.0 151.5 573.3 156.4 Q 606.7 161.4 640.0 167.9 Q 673.3 174.4 706.7 182.1 Q 740.0 189.8 773.3 198.4 Q 806.7 206.9 840.0 216.0 Q 873.3 225.0 906.7 234.0 Q 940.0 243.1 973.3 251.7 Q 1006.7 260.4 1040.0 268.2 Q 1073.3 276.1 1106.7 282.7 Q 1140.0 289.4 1173.3 294.7" fill="none" stroke="#c9a75e" stroke-width="2.03" stroke-opacity="0.05"/><path d="M -60.0 186.7 Q -60.0 186.7 -26.7 182.2 Q 6.7 177.7 40.0 175.2 Q 73.3 172.7 106.7 172.3 Q 140.0 171.9 173.3 173.6 Q 206.7 175.3 240.0 179.0 Q 273.3 182.8 306.7 188.3 Q 340.0 193.9 373.3 201.0 Q 406.7 208.2 440.0 216.6 Q 473.3 225.0 506.7 234.2 Q 540.0 243.5 573.3 253.3 Q 606.7 263.0 640.0 272.8 Q 673.3 282.6 706.7 292.0 Q 740.0 301.4 773.3 310.0 Q 806.7 318.6 840.0 326.0 Q 873.3 333.4 906.7 339.4 Q 940.0 345.3 973.3 349.6 Q 1006.7 353.9 1040.0 356.3 Q 1073.3 358.7 1106.7 359.2 Q 1140.0 359.6 1173.3 358.2" fill="none" stroke="#b08d47" stroke-width="1.74" stroke-opacity="0.05"/><path d="M -60.0 218.3 Q -60.0 218.3 -26.7 223.5 Q 6.7 228.7 40.0 235.7 Q 73.3 242.7 106.7 251.1 Q 140.0 259.5 173.3 269.0 Q 206.7 278.5 240.0 288.7 Q 273.3 298.9 306.7 309.3 Q 340.0 319.7 373.3 330.0 Q 406.7 340.3 440.0 349.9 Q 473.3 359.6 506.7 368.3 Q 540.0 376.9 573.3 384.2 Q 606.7 391.5 640.0 397.2 Q 673.3 402.9 706.7 406.8 Q 740.0 410.6 773.3 412.5 Q 806.7 414.4 840.0 414.3 Q 873.3 414.2 906.7 412.1 Q 940.0 410.1 973.3 406.2 Q 1006.7 402.4 1040.0 397.0 Q 1073.3 391.7 1106.7 385.0 Q 1140.0 378.4 1173.3 370.9" fill="none" stroke="#f0dcae" stroke-width="1.04" stroke-opacity="0.05"/><path d="M -60.0 331.3 Q -60.0 331.3 -26.7 321.2 Q 6.7 311.0 40.0 301.8 Q 73.3 292.6 106.7 284.7 Q 140.0 276.8 173.3 270.5 Q 206.7 264.2 240.0 259.7 Q 273.3 255.2 306.7 252.8 Q 340.0 250.3 373.3 249.9 Q 406.7 249.6 440.0 251.3 Q 473.3 252.9 506.7 256.6 Q 540.0 260.2 573.3 265.6 Q 606.7 271.0 640.0 277.9 Q 673.3 284.8 706.7 292.8 Q 740.0 300.8 773.3 309.6 Q 806.7 318.3 840.0 327.5 Q 873.3 336.6 906.7 345.6 Q 940.0 354.6 973.3 363.2 Q 1006.7 371.7 1040.0 379.3 Q 1073.3 387.0 1106.7 393.4 Q 1140.0 399.8 1173.3 404.6" fill="none" stroke="#e7cf9b" stroke-width="1.92" stroke-opacity="0.05"/><path d="M -60.0 363.4 Q -60.0 363.4 -26.7 373.8 Q 6.7 384.2 40.0 394.9 Q 73.3 405.6 106.7 416.1 Q 140.0 426.6 173.3 436.4 Q 206.7 446.3 240.0 455.1 Q 273.3 464.0 306.7 471.5 Q 340.0 478.9 373.3 484.7 Q 406.7 490.5 440.0 494.5 Q 473.3 498.4 506.7 500.3 Q 540.0 502.2 573.3 502.1 Q 606.7 501.9 640.0 499.8 Q 673.3 497.6 706.7 493.6 Q 740.0 489.6 773.3 483.9 Q 806.7 478.3 840.0 471.3 Q 873.3 464.3 906.7 456.4 Q 940.0 448.4 973.3 439.8 Q 1006.7 431.3 1040.0 422.5 Q 1073.3 413.8 1106.7 405.3 Q 1140.0 396.8 1173.3 389.0" fill="none" stroke="#d8b978" stroke-width="1.04" stroke-opacity="0.05"/><path d="M -60.0 359.3 Q -60.0 359.3 -26.7 368.2 Q 6.7 377.0 40.0 386.9 Q 73.3 396.7 106.7 407.2 Q 140.0 417.6 173.3 428.2 Q 206.7 438.9 240.0 449.2 Q 273.3 459.5 306.7 469.2 Q 340.0 478.8 373.3 487.4 Q 406.7 495.9 440.0 503.0 Q 473.3 510.2 506.7 515.6 Q 540.0 521.0 573.3 524.6 Q 606.7 528.1 640.0 529.6 Q 673.3 531.1 706.7 530.6 Q 740.0 530.1 773.3 527.7 Q 806.7 525.2 840.0 521.0 Q 873.3 516.7 906.7 511.0 Q 940.0 505.2 973.3 498.2 Q 1006.7 491.1 1040.0 483.2 Q 1073.3 475.4 1106.7 467.0 Q 1140.0 458.6 1173.3 450.2" fill="none" stroke="#c9a75e" stroke-width="1.02" stroke-opacity="0.05"/><path d="M -60.0 351.4 Q -60.0 351.4 -26.7 353.9 Q 6.7 356.4 40.0 360.9 Q 73.3 365.5 106.7 371.8 Q 140.0 378.1 173.3 386.0 Q 206.7 393.8 240.0 402.9 Q 273.3 411.9 306.7 421.8 Q 340.0 431.7 373.3 441.9 Q 406.7 452.2 440.0 462.4 Q 473.3 472.6 506.7 482.4 Q 540.0 492.1 573.3 501.0 Q 606.7 509.8 640.0 517.5 Q 673.3 525.1 706.7 531.2 Q 740.0 537.3 773.3 541.6 Q 806.7 545.9 840.0 548.3 Q 873.3 550.7 906.7 551.2 Q 940.0 551.6 973.3 550.1 Q 1006.7 548.6 1040.0 545.3 Q 1073.3 541.9 1106.7 537.0 Q 1140.0 532.1 1173.3 525.9" fill="none" stroke="#b08d47" stroke-width="1.30" stroke-opacity="0.05"/><path d="M -60.0 620.1 Q -60.0 620.1 -26.7 615.9 Q 6.7 611.7 40.0 605.7 Q 73.3 599.6 106.7 591.9 Q 140.0 584.3 173.3 575.3 Q 206.7 566.3 240.0 556.5 Q 273.3 546.6 306.7 536.2 Q 340.0 525.8 373.3 515.4 Q 406.7 504.9 440.0 494.9 Q 473.3 484.8 506.7 475.5 Q 540.0 466.2 573.3 458.0 Q 606.7 449.9 640.0 443.2 Q 673.3 436.5 706.7 431.6 Q 740.0 426.6 773.3 423.5 Q 806.7 420.5 840.0 419.4 Q 873.3 418.3 906.7 419.2 Q 940.0 420.1 973.3 422.9 Q 1006.7 425.6 1040.0 430.1 Q 1073.3 434.5 1106.7 440.4 Q 1140.0 446.2 1173.3 453.2" fill="none" stroke="#f0dcae" stroke-width="1.92" stroke-opacity="0.05"/><path d="M -60.0 646.4 Q -60.0 646.4 -26.7 650.9 Q 6.7 655.3 40.0 657.7 Q 73.3 660.1 106.7 660.4 Q 140.0 660.8 173.3 659.0 Q 206.7 657.2 240.0 653.4 Q 273.3 649.6 306.7 644.0 Q 340.0 638.3 373.3 631.1 Q 406.7 623.9 440.0 615.4 Q 473.3 606.9 506.7 597.5 Q 540.0 588.2 573.3 578.3 Q 606.7 568.5 640.0 558.6 Q 673.3 548.8 706.7 539.3 Q 740.0 529.8 773.3 521.1 Q 806.7 512.4 840.0 504.9 Q 873.3 497.3 906.7 491.3 Q 940.0 485.2 973.3 480.8 Q 1006.7 476.5 1040.0 474.0 Q 1073.3 471.4 1106.7 470.9 Q 1140.0 470.3 1173.3 471.6" fill="none" stroke="#e7cf9b" stroke-width="1.62" stroke-opacity="0.05"/><path d="M -60.0 523.2 Q -60.0 523.2 -26.7 533.1 Q 6.7 543.0 40.0 553.5 Q 73.3 564.0 106.7 574.7 Q 140.0 585.3 173.3 595.7 Q 206.7 606.1 240.0 615.8 Q 273.3 625.4 306.7 634.0 Q 340.0 642.6 373.3 649.8 Q 406.7 656.9 440.0 662.4 Q 473.3 667.8 506.7 671.3 Q 540.0 674.9 573.3 676.4 Q 606.7 677.9 640.0 677.4 Q 673.3 676.8 706.7 674.3 Q 740.0 671.8 773.3 667.5 Q 806.7 663.2 840.0 657.4 Q 873.3 651.5 906.7 644.4 Q 940.0 637.3 973.3 629.2 Q 1006.7 621.2 1040.0 612.7 Q 1073.3 604.2 1106.7 595.6 Q 1140.0 587.1 1173.3 578.8" fill="none" stroke="#d8b978" stroke-width="2.06" stroke-opacity="0.05"/><path d="M -60.0 731.7 Q -60.0 731.7 -26.7 732.5 Q 6.7 733.2 40.0 731.9 Q 73.3 730.5 106.7 727.1 Q 140.0 723.7 173.3 718.3 Q 206.7 713.0 240.0 706.0 Q 273.3 699.0 306.7 690.6 Q 340.0 682.2 373.3 672.9 Q 406.7 663.5 440.0 653.5 Q 473.3 643.5 506.7 633.3 Q 540.0 623.1 573.3 613.2 Q 606.7 603.3 640.0 594.0 Q 673.3 584.8 706.7 576.6 Q 740.0 568.4 773.3 561.5 Q 806.7 554.7 840.0 549.6 Q 873.3 544.4 906.7 541.1 Q 940.0 537.8 973.3 536.4 Q 1006.7 535.0 1040.0 535.5 Q 1073.3 536.1 1106.7 538.5 Q 1140.0 540.9 1173.3 544.9" fill="none" stroke="#c9a75e" stroke-width="0.81" stroke-opacity="0.05"/><path d="M -60.0 655.3 Q -60.0 655.3 -26.7 644.6 Q 6.7 633.8 40.0 623.3 Q 73.3 612.8 106.7 603.0 Q 140.0 593.1 173.3 584.4 Q 206.7 575.7 240.0 568.4 Q 273.3 561.1 306.7 555.5 Q 340.0 549.9 373.3 546.3 Q 406.7 542.6 440.0 541.0 Q 473.3 539.4 506.7 539.8 Q 540.0 540.2 573.3 542.7 Q 606.7 545.1 640.0 549.4 Q 673.3 553.7 706.7 559.6 Q 740.0 565.6 773.3 572.8 Q 806.7 580.0 840.0 588.2 Q 873.3 596.3 906.7 605.1 Q 940.0 613.8 973.3 622.6 Q 1006.7 631.5 1040.0 640.0 Q 1073.3 648.5 1106.7 656.4 Q 1140.0 664.2 1173.3 671.0" fill="none" stroke="#b08d47" stroke-width="1.94" stroke-opacity="0.05"/><path d="M -60.0 756.1 Q -60.0 756.1 -26.7 746.9 Q 6.7 737.8 40.0 727.7 Q 73.3 717.6 106.7 707.0 Q 140.0 696.4 173.3 685.7 Q 206.7 675.0 240.0 664.7 Q 273.3 654.3 306.7 644.7 Q 340.0 635.2 373.3 626.7 Q 406.7 618.3 440.0 611.3 Q 473.3 604.4 506.7 599.1 Q 540.0 593.9 573.3 590.6 Q 606.7 587.3 640.0 586.0 Q 673.3 584.8 706.7 585.5 Q 740.0 586.2 773.3 588.9 Q 806.7 591.6 840.0 596.0 Q 873.3 600.4 906.7 606.4 Q 940.0 612.3 973.3 619.4 Q 1006.7 626.5 1040.0 634.5 Q 1073.3 642.4 1106.7 650.7 Q 1140.0 659.0 1173.3 667.4" fill="none" stroke="#f0dcae" stroke-width="1.68" stroke-opacity="0.05"/><path d="M -60.0 606.1 Q -60.0 606.1 -26.7 603.4 Q 6.7 600.8 40.0 600.2 Q 73.3 599.6 106.7 601.1 Q 140.0 602.6 173.3 606.2 Q 206.7 609.7 240.0 615.2 Q 273.3 620.6 306.7 627.7 Q 340.0 634.7 373.3 643.1 Q 406.7 651.5 440.0 660.8 Q 473.3 670.1 506.7 679.9 Q 540.0 689.8 573.3 699.7 Q 606.7 709.7 640.0 719.3 Q 673.3 728.9 706.7 737.8 Q 740.0 746.7 773.3 754.4 Q 806.7 762.2 840.0 768.5 Q 873.3 774.8 906.7 779.5 Q 940.0 784.1 973.3 786.9 Q 1006.7 789.7 1040.0 790.6 Q 1073.3 791.5 1106.7 790.4 Q 1140.0 789.4 1173.3 786.5" fill="none" stroke="#e7cf9b" stroke-width="1.94" stroke-opacity="0.05"/><path d="M -60.0 661.3 Q -60.0 661.3 -26.7 668.5 Q 6.7 675.8 40.0 684.5 Q 73.3 693.1 106.7 702.8 Q 140.0 712.5 173.3 722.9 Q 206.7 733.2 240.0 743.8 Q 273.3 754.3 306.7 764.6 Q 340.0 774.9 373.3 784.6 Q 406.7 794.2 440.0 802.8 Q 473.3 811.4 506.7 818.6 Q 540.0 825.8 573.3 831.4 Q 606.7 836.9 640.0 840.6 Q 673.3 844.3 706.7 846.0 Q 740.0 847.6 773.3 847.3 Q 806.7 847.0 840.0 844.7 Q 873.3 842.5 906.7 838.4 Q 940.0 834.4 973.3 828.8 Q 1006.7 823.2 1040.0 816.4 Q 1073.3 809.5 1106.7 801.8 Q 1140.0 794.1 1173.3 785.9" fill="none" stroke="#d8b978" stroke-width="0.81" stroke-opacity="0.05"/><path d="M -60.0 711.3 Q -60.0 711.3 -26.7 703.9 Q 6.7 696.4 40.0 690.6 Q 73.3 684.9 106.7 681.0 Q 140.0 677.1 173.3 675.3 Q 206.7 673.4 240.0 673.7 Q 273.3 674.0 306.7 676.3 Q 340.0 678.6 373.3 682.9 Q 406.7 687.2 440.0 693.2 Q 473.3 699.2 506.7 706.7 Q 540.0 714.1 573.3 722.7 Q 606.7 731.2 640.0 740.5 Q 673.3 749.7 706.7 759.3 Q 740.0 768.8 773.3 778.2 Q 806.7 787.6 840.0 796.4 Q 873.3 805.2 906.7 813.1 Q 940.0 821.0 973.3 827.5 Q 1006.7 834.1 1040.0 839.1 Q 1073.3 844.1 1106.7 847.4 Q 1140.0 850.6 1173.3 852.0" fill="none" stroke="#c9a75e" stroke-width="1.91" stroke-opacity="0.05"/></g><circle cx="591" cy="448" r="315" fill="url(#arc)"/><circle cx="591" cy="448" r="315" fill="none" stroke="#e7cf9b" stroke-opacity="0.4" stroke-width="1.5"/><circle cx="591" cy="448" r="395" fill="none" stroke="#f0dcae" stroke-width="1.68" stroke-opacity="0.340"/><circle cx="591" cy="448" r="425" fill="none" stroke="#e7cf9b" stroke-width="1.49" stroke-opacity="0.305"/><circle cx="591" cy="448" r="558" fill="none" stroke="#d8b978" stroke-width="1.78" stroke-opacity="0.270"/><circle cx="591" cy="448" r="591" fill="none" stroke="#c9a75e" stroke-width="1.49" stroke-opacity="0.235"/><circle cx="591" cy="448" r="680" fill="none" stroke="#b08d47" stroke-width="1.21" stroke-opacity="0.200"/><circle cx="591" cy="448" r="754" fill="none" stroke="#f0dcae" stroke-width="1.75" stroke-opacity="0.165"/><circle cx="591" cy="448" r="715" fill="none" stroke="#e7cf9b" stroke-width="1.09" stroke-opacity="0.130"/><circle cx="591" cy="448" r="780" fill="none" stroke="#d8b978" stroke-width="0.83" stroke-opacity="0.095"/><circle cx="591" cy="448" r="785" fill="none" stroke="#c9a75e" stroke-width="1.43" stroke-opacity="0.060"/></g>
    <g transform="translate(1050 608) scale(1.15)" opacity="0.22">
    <circle cx="50" cy="38" r="27" fill="none" stroke="#c9a75e" stroke-width="5"/>
    <circle cx="50" cy="38" r="2.6" fill="#c9a75e"/>
    <circle cx="50" cy="28.5" r="2.2" fill="#c9a75e"/>
    <circle cx="58.2" cy="33.2" r="2.2" fill="#c9a75e"/>
    <circle cx="58.2" cy="42.8" r="2.2" fill="#c9a75e"/>
    <circle cx="50" cy="47.5" r="2.2" fill="#c9a75e"/>
    <circle cx="41.8" cy="42.8" r="2.2" fill="#c9a75e"/>
    <circle cx="41.8" cy="33.2" r="2.2" fill="#c9a75e"/>
    <path d="M58 62c9 12 9 23 0 23-9 0-9-11 0-23Z" fill="#b08d47"/></g>
    <g font-family="Georgia, 'Times New Roman', serif">
      <text x="64" y="90" fill="#e7cf9b" font-size="23" letter-spacing="6" font-weight="600" xml:space="preserve">VITAMIN C</text>
      <line x1="64" y1="112" x2="164" y2="112" stroke="#c9a75e" stroke-opacity="0.8" stroke-width="1.5"/>
    </g>
  <rect width="1200" height="760" fill="none" stroke="#c9a75e" stroke-opacity="0.16" stroke-width="1.5"/>
</svg>