<svg xmlns="http://www.w3.org/2000/svg" viewBox="0 0 1200 760" width="1200" height="760">
  <defs>
    <linearGradient id="bg" x1="0" y1="0" x2="0.35" y2="1">
      <stop offset="0" stop-color="#181410"/><stop offset="1" stop-color="#221b14"/>
    </linearGradient>
    <radialGradient id="glow" cx="0.699" cy="0.425" r="0.9">
      <stop offset="0" stop-color="#c9a75e" stop-opacity="0.200"/>
      <stop offset="0.55" stop-color="#c9a75e" stop-opacity="0"/>
    </radialGradient><radialGradient id="arc" cx="0.42" cy="0.4" r="0.6">
      <stop offset="0" stop-color="#f0dcae" stop-opacity="0.3"/>
      <stop offset="0.55" stop-color="#c9a75e" stop-opacity="0.1"/>
      <stop offset="1" stop-color="#c9a75e" stop-opacity="0"/>
    </radialGradient>
  </defs>
  <rect width="1200" height="760" fill="url(#bg)"/>
  <rect width="1200" height="760" fill="url(#glow)"/>
  <g><g opacity="0.6"><path d="M -60.0 -47.7 Q -60.0 -47.7 -26.7 -59.6 Q 6.7 -71.6 40.0 -83.6 Q 73.3 -95.7 106.7 -107.1 Q 140.0 -118.5 173.3 -128.7 Q 206.7 -138.9 240.0 -147.2 Q 273.3 -155.4 306.7 -161.3 Q 340.0 -167.2 373.3 -170.3 Q 406.7 -173.4 440.0 -173.5 Q 473.3 -173.6 506.7 -170.6 Q 540.0 -167.6 573.3 -161.7 Q 606.7 -155.7 640.0 -147.0 Q 673.3 -138.3 706.7 -127.2 Q 740.0 -116.2 773.3 -103.3 Q 806.7 -90.4 840.0 -76.4 Q 873.3 -62.3 906.7 -47.6 Q 940.0 -33.0 973.3 -18.5 Q 1006.7 -4.0 1040.0 9.7 Q 1073.3 23.3 1106.7 35.6 Q 1140.0 47.8 1173.3 58.1" fill="none" stroke="#f0dcae" stroke-width="2.06" stroke-opacity="0.05"/><path d="M -60.0 -84.4 Q -60.0 -84.4 -26.7 -95.6 Q 6.7 -106.7 40.0 -116.4 Q 73.3 -126.1 106.7 -133.8 Q 140.0 -141.5 173.3 -146.6 Q 206.7 -151.8 240.0 -154.1 Q 273.3 -156.3 306.7 -155.5 Q 340.0 -154.8 373.3 -150.9 Q 406.7 -146.9 440.0 -140.0 Q 473.3 -133.1 506.7 -123.5 Q 540.0 -113.9 573.3 -102.0 Q 606.7 -90.1 640.0 -76.4 Q 673.3 -62.7 706.7 -47.9 Q 740.0 -33.1 773.3 -17.8 Q 806.7 -2.6 840.0 12.5 Q 873.3 27.5 906.7 41.6 Q 940.0 55.7 973.3 68.3 Q 1006.7 80.9 1040.0 91.4 Q 1073.3 101.9 1106.7 110.0 Q 1140.0 118.1 1173.3 123.5" fill="none" stroke="#e7cf9b" stroke-width="1.90" stroke-opacity="0.05"/><path d="M -60.0 -116.3 Q -60.0 -116.3 -26.7 -122.6 Q 6.7 -128.9 40.0 -132.5 Q 73.3 -136.1 106.7 -136.7 Q 140.0 -137.3 173.3 -134.7 Q 206.7 -132.2 240.0 -126.5 Q 273.3 -120.9 306.7 -112.3 Q 340.0 -103.7 373.3 -92.5 Q 406.7 -81.3 440.0 -68.0 Q 473.3 -54.7 506.7 -39.9 Q 540.0 -25.0 573.3 -9.3 Q 606.7 6.4 640.0 22.4 Q 673.3 38.3 706.7 53.7 Q 740.0 69.1 773.3 83.4 Q 806.7 97.6 840.0 110.1 Q 873.3 122.6 906.7 132.8 Q 940.0 143.1 973.3 150.7 Q 1006.7 158.4 1040.0 163.2 Q 1073.3 168.0 1106.7 170.0 Q 1140.0 172.0 1173.3 171.3" fill="none" stroke="#d8b978" stroke-width="1.13" stroke-opacity="0.05"/><path d="M -60.0 -90.0 Q -60.0 -90.0 -26.7 -94.7 Q 6.7 -99.3 40.0 -101.1 Q 73.3 -102.8 106.7 -101.4 Q 140.0 -100.0 173.3 -95.5 Q 206.7 -91.0 240.0 -83.4 Q 273.3 -75.9 306.7 -65.6 Q 340.0 -55.3 373.3 -42.6 Q 406.7 -30.0 440.0 -15.5 Q 473.3 -1.1 506.7 14.5 Q 540.0 30.1 573.3 46.2 Q 606.7 62.3 640.0 78.1 Q 673.3 94.0 706.7 109.0 Q 740.0 123.9 773.3 137.4 Q 806.7 150.8 840.0 162.1 Q 873.3 173.5 906.7 182.4 Q 940.0 191.3 973.3 197.4 Q 1006.7 203.6 1040.0 206.8 Q 1073.3 210.1 1106.7 210.6 Q 1140.0 211.0 1173.3 208.8" fill="none" stroke="#c9a75e" stroke-width="1.24" stroke-opacity="0.05"/><path d="M -60.0 -77.6 Q -60.0 -77.6 -26.7 -72.5 Q 6.7 -67.5 40.0 -59.5 Q 73.3 -51.4 106.7 -40.6 Q 140.0 -29.8 173.3 -16.6 Q 206.7 -3.4 240.0 11.7 Q 273.3 26.7 306.7 42.9 Q 340.0 59.2 373.3 75.9 Q 406.7 92.7 440.0 109.3 Q 473.3 125.8 506.7 141.5 Q 540.0 157.2 573.3 171.4 Q 606.7 185.5 640.0 197.6 Q 673.3 209.7 706.7 219.3 Q 740.0 228.9 773.3 235.7 Q 806.7 242.5 840.0 246.4 Q 873.3 250.2 906.7 251.2 Q 940.0 252.2 973.3 250.4 Q 1006.7 248.6 1040.0 244.5 Q 1073.3 240.3 1106.7 234.3 Q 1140.0 228.2 1173.3 220.8" fill="none" stroke="#b08d47" stroke-width="1.05" stroke-opacity="0.05"/><path d="M -60.0 -6.5 Q -60.0 -6.5 -26.7 6.3 Q 6.7 19.0 40.0 33.8 Q 73.3 48.6 106.7 64.8 Q 140.0 81.1 173.3 98.1 Q 206.7 115.2 240.0 132.3 Q 273.3 149.4 306.7 166.0 Q 340.0 182.5 373.3 197.7 Q 406.7 212.9 440.0 226.3 Q 473.3 239.6 506.7 250.5 Q 540.0 261.5 573.3 269.7 Q 606.7 277.9 640.0 283.2 Q 673.3 288.4 706.7 290.7 Q 740.0 292.9 773.3 292.3 Q 806.7 291.6 840.0 288.3 Q 873.3 285.1 906.7 279.6 Q 940.0 274.1 973.3 266.9 Q 1006.7 259.7 1040.0 251.4 Q 1073.3 243.2 1106.7 234.5 Q 1140.0 225.8 1173.3 217.4" fill="none" stroke="#f0dcae" stroke-width="2.07" stroke-opacity="0.05"/><path d="M -60.0 2.9 Q -60.0 2.9 -26.7 9.6 Q 6.7 16.3 40.0 26.0 Q 73.3 35.6 106.7 47.8 Q 140.0 60.0 173.3 74.3 Q 206.7 88.6 240.0 104.5 Q 273.3 120.3 306.7 137.0 Q 340.0 153.7 373.3 170.5 Q 406.7 187.4 440.0 203.7 Q 473.3 220.0 506.7 235.0 Q 540.0 250.1 573.3 263.4 Q 606.7 276.6 640.0 287.5 Q 673.3 298.5 706.7 306.7 Q 740.0 315.0 773.3 320.3 Q 806.7 325.7 840.0 328.1 Q 873.3 330.5 906.7 330.0 Q 940.0 329.6 973.3 326.6 Q 1006.7 323.5 1040.0 318.3 Q 1073.3 313.1 1106.7 306.2 Q 1140.0 299.4 1173.3 291.5" fill="none" stroke="#e7cf9b" stroke-width="1.99" stroke-opacity="0.05"/><path d="M -60.0 39.5 Q -60.0 39.5 -26.7 44.3 Q 6.7 49.1 40.0 56.9 Q 73.3 64.7 106.7 75.3 Q 140.0 85.9 173.3 99.0 Q 206.7 112.0 240.0 126.9 Q 273.3 141.8 306.7 158.0 Q 340.0 174.1 373.3 190.9 Q 406.7 207.6 440.0 224.2 Q 473.3 240.8 506.7 256.5 Q 540.0 272.3 573.3 286.6 Q 606.7 300.9 640.0 313.1 Q 673.3 325.4 706.7 335.2 Q 740.0 344.9 773.3 351.9 Q 806.7 358.9 840.0 363.0 Q 873.3 367.1 906.7 368.2 Q 940.0 369.4 973.3 367.8 Q 1006.7 366.2 1040.0 362.3 Q 1073.3 358.3 1106.7 352.3 Q 1140.0 346.4 1173.3 339.0" fill="none" stroke="#d8b978" stroke-width="1.81" stroke-opacity="0.05"/><path d="M -60.0 95.4 Q -60.0 95.4 -26.7 106.0 Q 6.7 116.5 40.0 129.6 Q 73.3 142.6 106.7 157.6 Q 140.0 172.6 173.3 188.9 Q 206.7 205.2 240.0 222.2 Q 273.3 239.2 306.7 256.2 Q 340.0 273.2 373.3 289.4 Q 406.7 305.7 440.0 320.5 Q 473.3 335.3 506.7 348.2 Q 540.0 361.0 573.3 371.5 Q 606.7 381.9 640.0 389.5 Q 673.3 397.1 706.7 401.8 Q 740.0 406.5 773.3 408.2 Q 806.7 409.9 840.0 408.8 Q 873.3 407.6 906.7 404.0 Q 940.0 400.3 973.3 394.5 Q 1006.7 388.8 1040.0 381.4 Q 1073.3 374.1 1106.7 365.9 Q 1140.0 357.6 1173.3 349.1" fill="none" stroke="#c9a75e" stroke-width="1.91" stroke-opacity="0.05"/><path d="M -60.0 298.7 Q -60.0 298.7 -26.7 315.5 Q 6.7 332.2 40.0 347.8 Q 73.3 363.4 106.7 377.1 Q 140.0 390.8 173.3 402.2 Q 206.7 413.5 240.0 422.1 Q 273.3 430.7 306.7 436.3 Q 340.0 441.8 373.3 444.3 Q 406.7 446.7 440.0 446.1 Q 473.3 445.5 506.7 442.1 Q 540.0 438.7 573.3 432.8 Q 606.7 427.0 640.0 419.2 Q 673.3 411.4 706.7 402.3 Q 740.0 393.1 773.3 383.3 Q 806.7 373.5 840.0 363.7 Q 873.3 353.9 906.7 344.8 Q 940.0 335.7 973.3 327.9 Q 1006.7 320.2 1040.0 314.3 Q 1073.3 308.4 1106.7 304.9 Q 1140.0 301.3 1173.3 300.4" fill="none" stroke="#b08d47" stroke-width="1.64" stroke-opacity="0.05"/><path d="M -60.0 222.1 Q -60.0 222.1 -26.7 237.5 Q 6.7 253.0 40.0 269.7 Q 73.3 286.4 106.7 303.7 Q 140.0 321.0 173.3 338.1 Q 206.7 355.2 240.0 371.5 Q 273.3 387.8 306.7 402.6 Q 340.0 417.4 373.3 430.1 Q 406.7 442.8 440.0 452.9 Q 473.3 463.1 506.7 470.4 Q 540.0 477.7 573.3 482.0 Q 606.7 486.3 640.0 487.6 Q 673.3 488.9 706.7 487.3 Q 740.0 485.7 773.3 481.6 Q 806.7 477.4 840.0 471.2 Q 873.3 464.9 906.7 457.1 Q 940.0 449.3 973.3 440.6 Q 1006.7 431.8 1040.0 422.9 Q 1073.3 413.9 1106.7 405.4 Q 1140.0 396.9 1173.3 389.4" fill="none" stroke="#f0dcae" stroke-width="1.69" stroke-opacity="0.05"/><path d="M -60.0 456.6 Q -60.0 456.6 -26.7 468.4 Q 6.7 480.3 40.0 489.5 Q 73.3 498.7 106.7 504.9 Q 140.0 511.1 173.3 514.2 Q 206.7 517.3 240.0 517.2 Q 273.3 517.2 306.7 514.1 Q 340.0 511.1 373.3 505.5 Q 406.7 499.9 440.0 492.1 Q 473.3 484.2 506.7 474.8 Q 540.0 465.4 573.3 455.1 Q 606.7 444.7 640.0 434.1 Q 673.3 423.4 706.7 413.3 Q 740.0 403.1 773.3 394.0 Q 806.7 384.9 840.0 377.5 Q 873.3 370.2 906.7 365.0 Q 940.0 359.8 973.3 357.2 Q 1006.7 354.6 1040.0 354.8 Q 1073.3 355.0 1106.7 358.0 Q 1140.0 361.0 1173.3 366.8" fill="none" stroke="#e7cf9b" stroke-width="2.46" stroke-opacity="0.05"/><path d="M -60.0 394.9 Q -60.0 394.9 -26.7 382.8 Q 6.7 370.7 40.0 359.1 Q 73.3 347.4 106.7 336.9 Q 140.0 326.4 173.3 317.7 Q 206.7 309.0 240.0 302.5 Q 273.3 296.1 306.7 292.4 Q 340.0 288.7 373.3 288.0 Q 406.7 287.2 440.0 289.6 Q 473.3 291.9 506.7 297.3 Q 540.0 302.8 573.3 311.0 Q 606.7 319.2 640.0 329.9 Q 673.3 340.6 706.7 353.2 Q 740.0 365.9 773.3 380.0 Q 806.7 394.0 840.0 408.8 Q 873.3 423.5 906.7 438.3 Q 940.0 453.1 973.3 467.3 Q 1006.7 481.5 1040.0 494.3 Q 1073.3 507.2 1106.7 518.2 Q 1140.0 529.2 1173.3 537.9" fill="none" stroke="#d8b978" stroke-width="1.01" stroke-opacity="0.05"/><path d="M -60.0 421.0 Q -60.0 421.0 -26.7 409.1 Q 6.7 397.1 40.0 385.8 Q 73.3 374.5 106.7 364.6 Q 140.0 354.7 173.3 346.8 Q 206.7 338.9 240.0 333.5 Q 273.3 328.1 306.7 325.5 Q 340.0 322.9 373.3 323.3 Q 406.7 323.8 440.0 327.3 Q 473.3 330.9 506.7 337.4 Q 540.0 344.0 573.3 353.2 Q 606.7 362.5 640.0 374.0 Q 673.3 385.6 706.7 398.9 Q 740.0 412.3 773.3 426.7 Q 806.7 441.2 840.0 456.2 Q 873.3 471.2 906.7 485.9 Q 940.0 500.7 973.3 514.5 Q 1006.7 528.4 1040.0 540.7 Q 1073.3 553.1 1106.7 563.4 Q 1140.0 573.8 1173.3 581.7" fill="none" stroke="#c9a75e" stroke-width="1.47" stroke-opacity="0.05"/><path d="M -60.0 608.9 Q -60.0 608.9 -26.7 614.7 Q 6.7 620.6 40.0 623.3 Q 73.3 626.0 106.7 625.6 Q 140.0 625.2 173.3 621.8 Q 206.7 618.4 240.0 612.3 Q 273.3 606.3 306.7 598.0 Q 340.0 589.8 373.3 579.9 Q 406.7 570.0 440.0 559.2 Q 473.3 548.3 506.7 537.2 Q 540.0 526.1 573.3 515.4 Q 606.7 504.7 640.0 495.1 Q 673.3 485.4 706.7 477.5 Q 740.0 469.6 773.3 463.9 Q 806.7 458.3 840.0 455.2 Q 873.3 452.0 906.7 451.8 Q 940.0 451.5 973.3 454.1 Q 1006.7 456.7 1040.0 462.2 Q 1073.3 467.6 1106.7 475.6 Q 1140.0 483.6 1173.3 493.8" fill="none" stroke="#b08d47" stroke-width="2.45" stroke-opacity="0.05"/><path d="M -60.0 434.8 Q -60.0 434.8 -26.7 424.9 Q 6.7 415.1 40.0 407.2 Q 73.3 399.3 106.7 393.9 Q 140.0 388.5 173.3 386.0 Q 206.7 383.4 240.0 383.9 Q 273.3 384.4 306.7 388.0 Q 340.0 391.7 373.3 398.4 Q 406.7 405.0 440.0 414.5 Q 473.3 423.9 506.7 435.8 Q 540.0 447.6 573.3 461.3 Q 606.7 475.0 640.0 489.9 Q 673.3 504.8 706.7 520.3 Q 740.0 535.8 773.3 551.1 Q 806.7 566.5 840.0 581.0 Q 873.3 595.5 906.7 608.6 Q 940.0 621.7 973.3 632.8 Q 1006.7 643.9 1040.0 652.6 Q 1073.3 661.3 1106.7 667.3 Q 1140.0 673.3 1173.3 676.4" fill="none" stroke="#f0dcae" stroke-width="0.82" stroke-opacity="0.05"/><path d="M -60.0 392.8 Q -60.0 392.8 -26.7 394.5 Q 6.7 396.3 40.0 401.2 Q 73.3 406.1 106.7 414.0 Q 140.0 422.0 173.3 432.7 Q 206.7 443.4 240.0 456.5 Q 273.3 469.5 306.7 484.4 Q 340.0 499.3 373.3 515.3 Q 406.7 531.4 440.0 548.0 Q 473.3 564.5 506.7 580.9 Q 540.0 597.2 573.3 612.7 Q 606.7 628.1 640.0 642.1 Q 673.3 656.0 706.7 667.8 Q 740.0 679.7 773.3 689.0 Q 806.7 698.4 840.0 704.9 Q 873.3 711.5 906.7 715.2 Q 940.0 718.8 973.3 719.6 Q 1006.7 720.4 1040.0 718.5 Q 1073.3 716.6 1106.7 712.3 Q 1140.0 708.1 1173.3 702.0" fill="none" stroke="#e7cf9b" stroke-width="2.45" stroke-opacity="0.05"/><path d="M -60.0 688.8 Q -60.0 688.8 -26.7 680.2 Q 6.7 671.5 40.0 661.1 Q 73.3 650.7 106.7 639.1 Q 140.0 627.6 173.3 615.6 Q 206.7 603.7 240.0 592.0 Q 273.3 580.4 306.7 569.7 Q 340.0 559.0 373.3 549.9 Q 406.7 540.9 440.0 534.0 Q 473.3 527.1 506.7 522.8 Q 540.0 518.5 573.3 517.1 Q 606.7 515.7 640.0 517.3 Q 673.3 519.0 706.7 523.6 Q 740.0 528.2 773.3 535.5 Q 806.7 542.9 840.0 552.8 Q 873.3 562.6 906.7 574.4 Q 940.0 586.2 973.3 599.4 Q 1006.7 612.6 1040.0 626.5 Q 1073.3 640.5 1106.7 654.5 Q 1140.0 668.5 1173.3 681.9" fill="none" stroke="#d8b978" stroke-width="1.79" stroke-opacity="0.05"/><path d="M -60.0 713.6 Q -60.0 713.6 -26.7 703.8 Q 6.7 694.1 40.0 682.9 Q 73.3 671.7 106.7 659.8 Q 140.0 647.9 173.3 636.0 Q 206.7 624.0 240.0 612.8 Q 273.3 601.5 306.7 591.7 Q 340.0 581.8 373.3 573.8 Q 406.7 565.9 440.0 560.3 Q 473.3 554.8 506.7 552.1 Q 540.0 549.3 573.3 549.6 Q 606.7 549.9 640.0 553.1 Q 673.3 556.4 706.7 562.6 Q 740.0 568.8 773.3 577.7 Q 806.7 586.5 840.0 597.6 Q 873.3 608.6 906.7 621.3 Q 940.0 634.1 973.3 647.9 Q 1006.7 661.7 1040.0 675.9 Q 1073.3 690.1 1106.7 704.0 Q 1140.0 717.9 1173.3 730.9" fill="none" stroke="#c9a75e" stroke-width="1.48" stroke-opacity="0.05"/><path d="M -60.0 793.5 Q -60.0 793.5 -26.7 788.1 Q 6.7 782.7 40.0 774.8 Q 73.3 766.9 106.7 757.1 Q 140.0 747.3 173.3 736.2 Q 206.7 725.1 240.0 713.3 Q 273.3 701.6 306.7 689.9 Q 340.0 678.2 373.3 667.3 Q 406.7 656.4 440.0 647.0 Q 473.3 637.5 506.7 630.1 Q 540.0 622.6 573.3 617.6 Q 606.7 612.6 640.0 610.5 Q 673.3 608.3 706.7 609.0 Q 740.0 609.8 773.3 613.6 Q 806.7 617.3 840.0 623.9 Q 873.3 630.5 906.7 639.6 Q 940.0 648.6 973.3 659.8 Q 1006.7 671.0 1040.0 683.7 Q 1073.3 696.3 1106.7 709.9 Q 1140.0 723.5 1173.3 737.3" fill="none" stroke="#b08d47" stroke-width="2.19" stroke-opacity="0.05"/><path d="M -60.0 604.5 Q -60.0 604.5 -26.7 619.4 Q 6.7 634.3 40.0 650.7 Q 73.3 667.1 106.7 684.2 Q 140.0 701.4 173.3 718.6 Q 206.7 735.9 240.0 752.4 Q 273.3 769.0 306.7 784.3 Q 340.0 799.6 373.3 813.0 Q 406.7 826.4 440.0 837.3 Q 473.3 848.3 506.7 856.5 Q 540.0 864.7 573.3 869.9 Q 606.7 875.2 640.0 877.4 Q 673.3 879.6 706.7 878.8 Q 740.0 878.1 773.3 874.7 Q 806.7 871.3 840.0 865.7 Q 873.3 860.1 906.7 852.7 Q 940.0 845.4 973.3 836.9 Q 1006.7 828.5 1040.0 819.6 Q 1073.3 810.7 1106.7 802.0 Q 1140.0 793.4 1173.3 785.6" fill="none" stroke="#f0dcae" stroke-width="2.27" stroke-opacity="0.05"/><path d="M -60.0 714.9 Q -60.0 714.9 -26.7 703.2 Q 6.7 691.6 40.0 681.0 Q 73.3 670.5 106.7 661.6 Q 140.0 652.8 173.3 646.2 Q 206.7 639.6 240.0 635.8 Q 273.3 631.9 306.7 631.0 Q 340.0 630.1 373.3 632.3 Q 406.7 634.5 440.0 639.8 Q 473.3 645.1 506.7 653.3 Q 540.0 661.4 573.3 672.1 Q 606.7 682.8 640.0 695.5 Q 673.3 708.2 706.7 722.4 Q 740.0 736.6 773.3 751.6 Q 806.7 766.5 840.0 781.6 Q 873.3 796.7 906.7 811.2 Q 940.0 825.7 973.3 839.0 Q 1006.7 852.3 1040.0 863.8 Q 1073.3 875.3 1106.7 884.5 Q 1140.0 893.7 1173.3 900.4" fill="none" stroke="#e7cf9b" stroke-width="0.98" stroke-opacity="0.05"/></g><circle cx="742" cy="306" r="265" fill="url(#arc)"/><circle cx="742" cy="306" r="265" fill="none" stroke="#e7cf9b" stroke-opacity="0.4" stroke-width="1.5"/><circle cx="742" cy="306" r="319" fill="none" stroke="#f0dcae" stroke-width="1.70" stroke-opacity="0.340"/><circle cx="742" cy="306" r="366" fill="none" stroke="#e7cf9b" stroke-width="1.77" stroke-opacity="0.305"/><circle cx="742" cy="306" r="412" fill="none" stroke="#d8b978" stroke-width="1.07" stroke-opacity="0.270"/><circle cx="742" cy="306" r="526" fill="none" stroke="#c9a75e" stroke-width="1.62" stroke-opacity="0.235"/><circle cx="742" cy="306" r="521" fill="none" stroke="#b08d47" stroke-width="1.18" stroke-opacity="0.200"/><circle cx="742" cy="306" r="672" fill="none" stroke="#f0dcae" stroke-width="0.92" stroke-opacity="0.165"/><circle cx="742" cy="306" r="615" fill="none" stroke="#e7cf9b" stroke-width="1.75" stroke-opacity="0.130"/><circle cx="742" cy="306" r="751" fill="none" stroke="#d8b978" stroke-width="0.94" stroke-opacity="0.095"/><circle cx="742" cy="306" r="681" fill="none" stroke="#c9a75e" stroke-width="1.09" stroke-opacity="0.060"/></g>
    <g transform="translate(1050 608) scale(1.15)" opacity="0.22">
    <circle cx="50" cy="38" r="27" fill="none" stroke="#c9a75e" stroke-width="5"/>
    <circle cx="50" cy="38" r="2.6" fill="#c9a75e"/>
    <circle cx="50" cy="28.5" r="2.2" fill="#c9a75e"/>
    <circle cx="58.2" cy="33.2" r="2.2" fill="#c9a75e"/>
    <circle cx="58.2" cy="42.8" r="2.2" fill="#c9a75e"/>
    <circle cx="50" cy="47.5" r="2.2" fill="#c9a75e"/>
    <circle cx="41.8" cy="42.8" r="2.2" fill="#c9a75e"/>
    <circle cx="41.8" cy="33.2" r="2.2" fill="#c9a75e"/>
    <path d="M58 62c9 12 9 23 0 23-9 0-9-11 0-23Z" fill="#b08d47"/></g>
    <g font-family="Georgia, 'Times New Roman', serif">
      <text x="64" y="90" fill="#e7cf9b" font-size="23" letter-spacing="6" font-weight="600" xml:space="preserve">AROMATHERAPY</text>
      <line x1="64" y1="112" x2="164" y2="112" stroke="#c9a75e" stroke-opacity="0.8" stroke-width="1.5"/>
    </g>
  <rect width="1200" height="760" fill="none" stroke="#c9a75e" stroke-opacity="0.16" stroke-width="1.5"/>
</svg>