<svg xmlns="http://www.w3.org/2000/svg" viewBox="0 0 1200 760" width="1200" height="760">
  <defs>
    <linearGradient id="bg" x1="0" y1="0" x2="0.35" y2="1">
      <stop offset="0" stop-color="#181410"/><stop offset="1" stop-color="#221b14"/>
    </linearGradient>
    <radialGradient id="glow" cx="0.678" cy="0.120" r="0.9">
      <stop offset="0" stop-color="#c9a75e" stop-opacity="0.200"/>
      <stop offset="0.55" stop-color="#c9a75e" stop-opacity="0"/>
    </radialGradient>
  </defs>
  <rect width="1200" height="760" fill="url(#bg)"/>
  <rect width="1200" height="760" fill="url(#glow)"/>
  <g><path d="M -60.0 29.4 Q -60.0 29.4 -26.7 13.2 Q 6.7 -2.9 40.0 -18.4 Q 73.3 -33.9 106.7 -47.7 Q 140.0 -61.4 173.3 -72.4 Q 206.7 -83.4 240.0 -91.0 Q 273.3 -98.5 306.7 -102.3 Q 340.0 -106.1 373.3 -106.1 Q 406.7 -106.1 440.0 -102.6 Q 473.3 -99.2 506.7 -93.0 Q 540.0 -86.7 573.3 -78.7 Q 606.7 -70.6 640.0 -61.7 Q 673.3 -52.9 706.7 -44.5 Q 740.0 -36.0 773.3 -29.0 Q 806.7 -22.1 840.0 -17.5 Q 873.3 -12.9 906.7 -11.4 Q 940.0 -9.9 973.3 -11.8 Q 1006.7 -13.7 1040.0 -19.1 Q 1073.3 -24.4 1106.7 -32.8 Q 1140.0 -41.2 1173.3 -52.0" fill="none" stroke="#f0dcae" stroke-width="1.65" stroke-opacity="0.305"/><path d="M -60.0 25.0 Q -60.0 25.0 -26.7 9.9 Q 6.7 -5.2 40.0 -18.3 Q 73.3 -31.4 106.7 -41.6 Q 140.0 -51.8 173.3 -58.4 Q 206.7 -65.1 240.0 -67.9 Q 273.3 -70.6 306.7 -69.6 Q 340.0 -68.6 373.3 -64.2 Q 406.7 -59.8 440.0 -52.8 Q 473.3 -45.8 506.7 -37.1 Q 540.0 -28.3 573.3 -19.1 Q 606.7 -9.8 640.0 -1.1 Q 673.3 7.6 706.7 14.6 Q 740.0 21.6 773.3 26.0 Q 806.7 30.5 840.0 31.8 Q 873.3 33.1 906.7 30.9 Q 940.0 28.7 973.3 23.1 Q 1006.7 17.5 1040.0 8.9 Q 1073.3 0.3 1106.7 -10.5 Q 1140.0 -21.4 1173.3 -33.6" fill="none" stroke="#e7cf9b" stroke-width="1.17" stroke-opacity="0.331"/><path d="M -60.0 17.6 Q -60.0 17.6 -26.7 6.1 Q 6.7 -5.5 40.0 -13.7 Q 73.3 -21.9 106.7 -26.4 Q 140.0 -30.9 173.3 -31.4 Q 206.7 -32.0 240.0 -28.9 Q 273.3 -25.8 306.7 -19.6 Q 340.0 -13.4 373.3 -4.9 Q 406.7 3.5 440.0 13.1 Q 473.3 22.7 506.7 32.4 Q 540.0 42.0 573.3 50.6 Q 606.7 59.1 640.0 65.5 Q 673.3 71.9 706.7 75.5 Q 740.0 79.0 773.3 79.1 Q 806.7 79.2 840.0 75.8 Q 873.3 72.4 906.7 65.7 Q 940.0 58.9 973.3 49.4 Q 1006.7 40.0 1040.0 28.5 Q 1073.3 17.1 1106.7 4.8 Q 1140.0 -7.6 1173.3 -19.7" fill="none" stroke="#d8b978" stroke-width="0.84" stroke-opacity="0.358"/><path d="M -60.0 18.8 Q -60.0 18.8 -26.7 15.3 Q 6.7 11.7 40.0 12.1 Q 73.3 12.5 106.7 16.5 Q 140.0 20.5 173.3 27.5 Q 206.7 34.6 240.0 43.8 Q 273.3 53.0 306.7 63.3 Q 340.0 73.6 373.3 83.9 Q 406.7 94.1 440.0 103.1 Q 473.3 112.2 506.7 118.9 Q 540.0 125.7 573.3 129.5 Q 606.7 133.3 640.0 133.6 Q 673.3 133.9 706.7 130.6 Q 740.0 127.3 773.3 120.6 Q 806.7 113.9 840.0 104.4 Q 873.3 94.9 906.7 83.4 Q 940.0 71.9 973.3 59.5 Q 1006.7 47.0 1040.0 34.8 Q 1073.3 22.5 1106.7 11.6 Q 1140.0 0.6 1173.3 -8.2" fill="none" stroke="#c9a75e" stroke-width="1.66" stroke-opacity="0.384"/><path d="M -60.0 54.4 Q -60.0 54.4 -26.7 50.1 Q 6.7 45.7 40.0 45.3 Q 73.3 44.8 106.7 48.1 Q 140.0 51.4 173.3 57.9 Q 206.7 64.4 240.0 73.2 Q 273.3 82.0 306.7 92.2 Q 340.0 102.3 373.3 112.6 Q 406.7 122.9 440.0 132.2 Q 473.3 141.4 506.7 148.7 Q 540.0 155.9 573.3 160.3 Q 606.7 164.7 640.0 165.6 Q 673.3 166.6 706.7 163.9 Q 740.0 161.3 773.3 155.2 Q 806.7 149.1 840.0 140.0 Q 873.3 131.0 906.7 119.8 Q 940.0 108.7 973.3 96.3 Q 1006.7 84.0 1040.0 71.7 Q 1073.3 59.3 1106.7 48.1 Q 1140.0 36.8 1173.3 27.6" fill="none" stroke="#b08d47" stroke-width="1.16" stroke-opacity="0.410"/><path d="M -60.0 102.6 Q -60.0 102.6 -26.7 108.9 Q 6.7 115.3 40.0 124.2 Q 73.3 133.1 106.7 143.6 Q 140.0 154.1 173.3 165.1 Q 206.7 176.0 240.0 186.3 Q 273.3 196.5 306.7 204.9 Q 340.0 213.3 373.3 219.0 Q 406.7 224.6 440.0 226.9 Q 473.3 229.2 506.7 227.8 Q 540.0 226.4 573.3 221.3 Q 606.7 216.2 640.0 207.9 Q 673.3 199.6 706.7 188.7 Q 740.0 177.8 773.3 165.4 Q 806.7 152.9 840.0 139.9 Q 873.3 126.9 906.7 114.6 Q 940.0 102.2 973.3 91.6 Q 1006.7 80.9 1040.0 72.8 Q 1073.3 64.6 1106.7 59.7 Q 1140.0 54.7 1173.3 53.2" fill="none" stroke="#f0dcae" stroke-width="1.02" stroke-opacity="0.436"/><path d="M -60.0 119.5 Q -60.0 119.5 -26.7 119.1 Q 6.7 118.8 40.0 122.1 Q 73.3 125.5 106.7 132.1 Q 140.0 138.6 173.3 147.6 Q 206.7 156.6 240.0 167.0 Q 273.3 177.3 306.7 187.9 Q 340.0 198.4 373.3 208.0 Q 406.7 217.6 440.0 225.2 Q 473.3 232.8 506.7 237.5 Q 540.0 242.3 573.3 243.6 Q 606.7 244.9 640.0 242.5 Q 673.3 240.2 706.7 234.3 Q 740.0 228.5 773.3 219.6 Q 806.7 210.7 840.0 199.6 Q 873.3 188.5 906.7 176.1 Q 940.0 163.7 973.3 151.2 Q 1006.7 138.7 1040.0 127.1 Q 1073.3 115.5 1106.7 106.0 Q 1140.0 96.4 1173.3 89.6" fill="none" stroke="#e7cf9b" stroke-width="1.25" stroke-opacity="0.463"/><path d="M -60.0 187.1 Q -60.0 187.1 -26.7 195.6 Q 6.7 204.1 40.0 214.4 Q 73.3 224.8 106.7 235.8 Q 140.0 246.9 173.3 257.5 Q 206.7 268.1 240.0 277.1 Q 273.3 286.0 306.7 292.5 Q 340.0 298.9 373.3 302.0 Q 406.7 305.1 440.0 304.6 Q 473.3 304.0 506.7 299.7 Q 540.0 295.4 573.3 287.7 Q 606.7 280.0 640.0 269.5 Q 673.3 259.1 706.7 246.7 Q 740.0 234.3 773.3 221.2 Q 806.7 208.0 840.0 195.2 Q 873.3 182.3 906.7 170.9 Q 940.0 159.5 973.3 150.4 Q 1006.7 141.4 1040.0 135.3 Q 1073.3 129.3 1106.7 126.6 Q 1140.0 124.0 1173.3 124.7" fill="none" stroke="#d8b978" stroke-width="1.38" stroke-opacity="0.489"/><path d="M -60.0 219.2 Q -60.0 219.2 -26.7 227.5 Q 6.7 235.8 40.0 246.0 Q 73.3 256.2 106.7 267.2 Q 140.0 278.3 173.3 288.9 Q 206.7 299.6 240.0 308.8 Q 273.3 317.9 306.7 324.6 Q 340.0 331.3 373.3 334.7 Q 406.7 338.2 440.0 337.9 Q 473.3 337.7 506.7 333.8 Q 540.0 329.8 573.3 322.4 Q 606.7 315.0 640.0 304.7 Q 673.3 294.5 706.7 282.2 Q 740.0 270.0 773.3 256.9 Q 806.7 243.8 840.0 230.9 Q 873.3 218.0 906.7 206.5 Q 940.0 194.9 973.3 185.7 Q 1006.7 176.4 1040.0 170.1 Q 1073.3 163.8 1106.7 160.9 Q 1140.0 158.0 1173.3 158.5" fill="none" stroke="#c9a75e" stroke-width="1.58" stroke-opacity="0.515"/><path d="M -60.0 432.0 Q -60.0 432.0 -26.7 428.1 Q 6.7 424.3 40.0 416.6 Q 73.3 408.9 106.7 397.9 Q 140.0 386.8 173.3 373.3 Q 206.7 359.7 240.0 344.5 Q 273.3 329.4 306.7 313.8 Q 340.0 298.2 373.3 283.4 Q 406.7 268.5 440.0 255.6 Q 473.3 242.6 506.7 232.3 Q 540.0 222.0 573.3 215.1 Q 606.7 208.1 640.0 204.8 Q 673.3 201.5 706.7 201.8 Q 740.0 202.0 773.3 205.4 Q 806.7 208.8 840.0 214.5 Q 873.3 220.3 906.7 227.5 Q 940.0 234.7 973.3 242.2 Q 1006.7 249.8 1040.0 256.5 Q 1073.3 263.3 1106.7 268.2 Q 1140.0 273.1 1173.3 275.4" fill="none" stroke="#b08d47" stroke-width="1.71" stroke-opacity="0.541"/><path d="M -60.0 453.9 Q -60.0 453.9 -26.7 456.4 Q 6.7 458.8 40.0 457.4 Q 73.3 456.0 106.7 450.7 Q 140.0 445.4 173.3 436.5 Q 206.7 427.5 240.0 415.6 Q 273.3 403.7 306.7 389.7 Q 340.0 375.6 373.3 360.5 Q 406.7 345.5 440.0 330.5 Q 473.3 315.6 506.7 301.9 Q 540.0 288.2 573.3 276.8 Q 606.7 265.4 640.0 257.0 Q 673.3 248.6 706.7 243.6 Q 740.0 238.7 773.3 237.3 Q 806.7 236.0 840.0 237.9 Q 873.3 239.9 906.7 244.5 Q 940.0 249.2 973.3 255.7 Q 1006.7 262.3 1040.0 269.6 Q 1073.3 277.0 1106.7 284.1 Q 1140.0 291.1 1173.3 296.8" fill="none" stroke="#f0dcae" stroke-width="1.78" stroke-opacity="0.568"/><path d="M -60.0 486.0 Q -60.0 486.0 -26.7 489.0 Q 6.7 491.9 40.0 491.1 Q 73.3 490.2 106.7 485.5 Q 140.0 480.7 173.3 472.3 Q 206.7 463.9 240.0 452.3 Q 273.3 440.8 306.7 427.0 Q 340.0 413.3 373.3 398.3 Q 406.7 383.3 440.0 368.4 Q 473.3 353.4 506.7 339.5 Q 540.0 325.6 573.3 313.9 Q 606.7 302.2 640.0 293.4 Q 673.3 284.6 706.7 279.2 Q 740.0 273.8 773.3 272.0 Q 806.7 270.2 840.0 271.7 Q 873.3 273.3 906.7 277.6 Q 940.0 282.0 973.3 288.4 Q 1006.7 294.7 1040.0 302.0 Q 1073.3 309.3 1106.7 316.5 Q 1140.0 323.7 1173.3 329.6" fill="none" stroke="#e7cf9b" stroke-width="1.86" stroke-opacity="0.594"/><path d="M -60.0 530.0 Q -60.0 530.0 -26.7 522.0 Q 6.7 513.9 40.0 502.6 Q 73.3 491.2 106.7 477.3 Q 140.0 463.4 173.3 448.0 Q 206.7 432.6 240.0 416.8 Q 273.3 401.0 306.7 386.0 Q 340.0 371.0 373.3 357.8 Q 406.7 344.7 440.0 334.4 Q 473.3 324.0 506.7 317.0 Q 540.0 310.1 573.3 306.8 Q 606.7 303.5 640.0 303.8 Q 673.3 304.0 706.7 307.5 Q 740.0 311.0 773.3 316.9 Q 806.7 322.7 840.0 330.1 Q 873.3 337.5 906.7 345.2 Q 940.0 352.9 973.3 359.9 Q 1006.7 366.9 1040.0 372.1 Q 1073.3 377.3 1106.7 379.8 Q 1140.0 382.3 1173.3 381.7" fill="none" stroke="#d8b978" stroke-width="2.14" stroke-opacity="0.620"/><path d="M -60.0 517.7 Q -60.0 517.7 -26.7 526.0 Q 6.7 534.3 40.0 539.8 Q 73.3 545.2 106.7 547.2 Q 140.0 549.2 173.3 547.3 Q 206.7 545.4 240.0 539.7 Q 273.3 534.0 306.7 524.8 Q 340.0 515.6 373.3 503.7 Q 406.7 491.7 440.0 477.8 Q 473.3 464.0 506.7 449.4 Q 540.0 434.9 573.3 420.7 Q 606.7 406.6 640.0 393.9 Q 673.3 381.3 706.7 371.1 Q 740.0 360.9 773.3 353.8 Q 806.7 346.7 840.0 343.1 Q 873.3 339.5 906.7 339.3 Q 940.0 339.2 973.3 342.2 Q 1006.7 345.1 1040.0 350.6 Q 1073.3 356.0 1106.7 362.9 Q 1140.0 369.9 1173.3 377.2" fill="none" stroke="#c9a75e" stroke-width="2.45" stroke-opacity="0.594"/><path d="M -60.0 565.2 Q -60.0 565.2 -26.7 551.3 Q 6.7 537.3 40.0 521.7 Q 73.3 506.1 106.7 490.0 Q 140.0 473.9 173.3 458.5 Q 206.7 443.1 240.0 429.5 Q 273.3 415.9 306.7 405.0 Q 340.0 394.1 373.3 386.6 Q 406.7 379.1 440.0 375.4 Q 473.3 371.6 506.7 371.6 Q 540.0 371.5 573.3 374.8 Q 606.7 378.1 640.0 384.0 Q 673.3 389.9 706.7 397.5 Q 740.0 405.1 773.3 413.4 Q 806.7 421.6 840.0 429.3 Q 873.3 437.0 906.7 443.1 Q 940.0 449.2 973.3 452.8 Q 1006.7 456.4 1040.0 456.9 Q 1073.3 457.4 1106.7 454.5 Q 1140.0 451.6 1173.3 445.3" fill="none" stroke="#b08d47" stroke-width="1.78" stroke-opacity="0.568"/><path d="M -60.0 552.4 Q -60.0 552.4 -26.7 536.3 Q 6.7 520.2 40.0 504.3 Q 73.3 488.5 106.7 474.1 Q 140.0 459.7 173.3 447.7 Q 206.7 435.7 240.0 427.0 Q 273.3 418.2 306.7 413.2 Q 340.0 408.2 373.3 407.0 Q 406.7 405.7 440.0 408.1 Q 473.3 410.5 506.7 415.8 Q 540.0 421.2 573.3 428.7 Q 606.7 436.3 640.0 444.9 Q 673.3 453.5 706.7 462.1 Q 740.0 470.7 773.3 478.1 Q 806.7 485.5 840.0 490.8 Q 873.3 496.1 906.7 498.5 Q 940.0 500.9 973.3 499.9 Q 1006.7 499.0 1040.0 494.6 Q 1073.3 490.1 1106.7 482.5 Q 1140.0 474.9 1173.3 464.7" fill="none" stroke="#f0dcae" stroke-width="1.39" stroke-opacity="0.541"/><path d="M -60.0 556.9 Q -60.0 556.9 -26.7 541.1 Q 6.7 525.2 40.0 510.7 Q 73.3 496.2 106.7 484.1 Q 140.0 472.0 173.3 463.1 Q 206.7 454.2 240.0 449.0 Q 273.3 443.8 306.7 442.5 Q 340.0 441.1 373.3 443.4 Q 406.7 445.7 440.0 451.1 Q 473.3 456.5 506.7 464.2 Q 540.0 471.8 573.3 480.7 Q 606.7 489.6 640.0 498.6 Q 673.3 507.5 706.7 515.4 Q 740.0 523.3 773.3 529.2 Q 806.7 535.0 840.0 538.0 Q 873.3 541.0 906.7 540.7 Q 940.0 540.4 973.3 536.6 Q 1006.7 532.8 1040.0 525.7 Q 1073.3 518.6 1106.7 508.9 Q 1140.0 499.1 1173.3 487.4" fill="none" stroke="#e7cf9b" stroke-width="1.05" stroke-opacity="0.515"/><path d="M -60.0 499.9 Q -60.0 499.9 -26.7 502.7 Q 6.7 505.6 40.0 511.8 Q 73.3 518.0 106.7 526.8 Q 140.0 535.6 173.3 545.9 Q 206.7 556.3 240.0 567.1 Q 273.3 577.9 306.7 587.9 Q 340.0 597.9 373.3 606.2 Q 406.7 614.4 440.0 619.8 Q 473.3 625.3 506.7 627.4 Q 540.0 629.5 573.3 627.9 Q 606.7 626.4 640.0 621.2 Q 673.3 616.1 706.7 607.7 Q 740.0 599.4 773.3 588.5 Q 806.7 577.7 840.0 565.4 Q 873.3 553.1 906.7 540.3 Q 940.0 527.6 973.3 515.5 Q 1006.7 503.5 1040.0 493.2 Q 1073.3 483.0 1106.7 475.3 Q 1140.0 467.6 1173.3 463.1" fill="none" stroke="#d8b978" stroke-width="1.52" stroke-opacity="0.489"/><path d="M -60.0 644.5 Q -60.0 644.5 -26.7 655.4 Q 6.7 666.2 40.0 675.7 Q 73.3 685.2 106.7 692.2 Q 140.0 699.3 173.3 703.2 Q 206.7 707.0 240.0 707.2 Q 273.3 707.4 306.7 703.7 Q 340.0 700.0 373.3 692.6 Q 406.7 685.3 440.0 674.9 Q 473.3 664.4 506.7 651.8 Q 540.0 639.1 573.3 625.2 Q 606.7 611.3 640.0 597.3 Q 673.3 583.3 706.7 570.4 Q 740.0 557.5 773.3 546.7 Q 806.7 535.8 840.0 527.8 Q 873.3 519.8 906.7 515.1 Q 940.0 510.5 973.3 509.3 Q 1006.7 508.1 1040.0 510.1 Q 1073.3 512.2 1106.7 517.0 Q 1140.0 521.7 1173.3 528.4" fill="none" stroke="#c9a75e" stroke-width="0.88" stroke-opacity="0.463"/><path d="M -60.0 701.8 Q -60.0 701.8 -26.7 685.9 Q 6.7 670.0 40.0 653.9 Q 73.3 637.8 106.7 622.6 Q 140.0 607.5 173.3 594.4 Q 206.7 581.4 240.0 571.2 Q 273.3 561.1 306.7 554.5 Q 340.0 547.9 373.3 545.1 Q 406.7 542.3 440.0 543.2 Q 473.3 544.1 506.7 548.3 Q 540.0 552.5 573.3 559.1 Q 606.7 565.8 640.0 574.0 Q 673.3 582.2 706.7 590.8 Q 740.0 599.4 773.3 607.3 Q 806.7 615.1 840.0 621.2 Q 873.3 627.3 906.7 630.8 Q 940.0 634.2 973.3 634.5 Q 1006.7 634.7 1040.0 631.6 Q 1073.3 628.4 1106.7 621.8 Q 1140.0 615.3 1173.3 605.9" fill="none" stroke="#b08d47" stroke-width="1.29" stroke-opacity="0.436"/><path d="M -60.0 656.0 Q -60.0 656.0 -26.7 666.3 Q 6.7 676.6 40.0 687.7 Q 73.3 698.8 106.7 709.6 Q 140.0 720.3 173.3 729.5 Q 206.7 738.7 240.0 745.3 Q 273.3 752.0 306.7 755.4 Q 340.0 758.8 373.3 758.5 Q 406.7 758.2 440.0 754.1 Q 473.3 750.0 506.7 742.4 Q 540.0 734.8 573.3 724.4 Q 606.7 713.9 640.0 701.4 Q 673.3 689.0 706.7 675.6 Q 740.0 662.2 773.3 649.0 Q 806.7 635.7 840.0 623.8 Q 873.3 611.9 906.7 602.3 Q 940.0 592.6 973.3 585.9 Q 1006.7 579.3 1040.0 575.9 Q 1073.3 572.6 1106.7 572.7 Q 1140.0 572.9 1173.3 576.1" fill="none" stroke="#f0dcae" stroke-width="2.19" stroke-opacity="0.410"/><path d="M -60.0 632.5 Q -60.0 632.5 -26.7 631.9 Q 6.7 631.3 40.0 634.5 Q 73.3 637.7 106.7 644.1 Q 140.0 650.6 173.3 659.5 Q 206.7 668.4 240.0 678.7 Q 273.3 689.0 306.7 699.5 Q 340.0 710.1 373.3 719.7 Q 406.7 729.4 440.0 737.1 Q 473.3 744.8 506.7 749.6 Q 540.0 754.5 573.3 756.0 Q 606.7 757.4 640.0 755.2 Q 673.3 753.1 706.7 747.3 Q 740.0 741.6 773.3 732.9 Q 806.7 724.1 840.0 713.1 Q 873.3 702.1 906.7 689.7 Q 940.0 677.4 973.3 664.9 Q 1006.7 652.3 1040.0 640.7 Q 1073.3 629.1 1106.7 619.4 Q 1140.0 609.7 1173.3 602.8" fill="none" stroke="#e7cf9b" stroke-width="1.77" stroke-opacity="0.384"/><path d="M -60.0 785.0 Q -60.0 785.0 -26.7 795.7 Q 6.7 806.4 40.0 815.7 Q 73.3 824.9 106.7 831.6 Q 140.0 838.4 173.3 841.8 Q 206.7 845.3 240.0 845.0 Q 273.3 844.7 306.7 840.5 Q 340.0 836.4 373.3 828.6 Q 406.7 820.9 440.0 810.1 Q 473.3 799.4 506.7 786.5 Q 540.0 773.6 573.3 759.6 Q 606.7 745.6 640.0 731.6 Q 673.3 717.7 706.7 704.9 Q 740.0 692.1 773.3 681.5 Q 806.7 670.9 840.0 663.2 Q 873.3 655.5 906.7 651.2 Q 940.0 646.9 973.3 646.0 Q 1006.7 645.2 1040.0 647.6 Q 1073.3 649.9 1106.7 654.9 Q 1140.0 659.9 1173.3 666.7" fill="none" stroke="#d8b978" stroke-width="1.52" stroke-opacity="0.358"/><path d="M -60.0 910.6 Q -60.0 910.6 -26.7 907.3 Q 6.7 904.1 40.0 896.9 Q 73.3 889.8 106.7 879.3 Q 140.0 868.7 173.3 855.5 Q 206.7 842.2 240.0 827.3 Q 273.3 812.3 306.7 796.7 Q 340.0 781.2 373.3 766.2 Q 406.7 751.3 440.0 738.0 Q 473.3 724.7 506.7 714.0 Q 540.0 703.3 573.3 695.9 Q 606.7 688.5 640.0 684.7 Q 673.3 680.9 706.7 680.7 Q 740.0 680.4 773.3 683.4 Q 806.7 686.4 840.0 691.9 Q 873.3 697.3 906.7 704.4 Q 940.0 711.4 973.3 719.0 Q 1006.7 726.5 1040.0 733.4 Q 1073.3 740.3 1106.7 745.5 Q 1140.0 750.7 1173.3 753.4" fill="none" stroke="#c9a75e" stroke-width="1.69" stroke-opacity="0.331"/><path d="M -60.0 939.6 Q -60.0 939.6 -26.7 931.2 Q 6.7 922.9 40.0 911.3 Q 73.3 899.7 106.7 885.6 Q 140.0 871.5 173.3 856.0 Q 206.7 840.5 240.0 824.7 Q 273.3 808.9 306.7 794.0 Q 340.0 779.1 373.3 766.2 Q 406.7 753.2 440.0 743.1 Q 473.3 733.0 506.7 726.3 Q 540.0 719.6 573.3 716.6 Q 606.7 713.6 640.0 714.2 Q 673.3 714.7 706.7 718.4 Q 740.0 722.1 773.3 728.2 Q 806.7 734.2 840.0 741.7 Q 873.3 749.1 906.7 756.9 Q 940.0 764.6 973.3 771.5 Q 1006.7 778.4 1040.0 783.4 Q 1073.3 788.4 1106.7 790.8 Q 1140.0 793.1 1173.3 792.2" fill="none" stroke="#b08d47" stroke-width="1.63" stroke-opacity="0.305"/></g>
    <g transform="translate(1050 608) scale(1.15)" opacity="0.22">
    <circle cx="50" cy="38" r="27" fill="none" stroke="#c9a75e" stroke-width="5"/>
    <circle cx="50" cy="38" r="2.6" fill="#c9a75e"/>
    <circle cx="50" cy="28.5" r="2.2" fill="#c9a75e"/>
    <circle cx="58.2" cy="33.2" r="2.2" fill="#c9a75e"/>
    <circle cx="58.2" cy="42.8" r="2.2" fill="#c9a75e"/>
    <circle cx="50" cy="47.5" r="2.2" fill="#c9a75e"/>
    <circle cx="41.8" cy="42.8" r="2.2" fill="#c9a75e"/>
    <circle cx="41.8" cy="33.2" r="2.2" fill="#c9a75e"/>
    <path d="M58 62c9 12 9 23 0 23-9 0-9-11 0-23Z" fill="#b08d47"/></g>
    <g font-family="Georgia, 'Times New Roman', serif">
      <text x="64" y="90" fill="#e7cf9b" font-size="23" letter-spacing="6" font-weight="600" xml:space="preserve">SEASONAL</text>
      <line x1="64" y1="112" x2="164" y2="112" stroke="#c9a75e" stroke-opacity="0.8" stroke-width="1.5"/>
    </g>
  <rect width="1200" height="760" fill="none" stroke="#c9a75e" stroke-opacity="0.16" stroke-width="1.5"/>
</svg>